<mxfile host="app.diagrams.net" modified="2023-05-23T16:43:34.843Z" agent="Mozilla/5.0 (Windows NT 10.0; Win64; x64) AppleWebKit/537.36 (KHTML, like Gecko) Chrome/113.0.0.0 Safari/537.36" etag="vLKf0cJNL1Ew4jZJCez5" version="21.3.2" type="device">
  <diagram id="C5RBs43oDa-KdzZeNtuy" name="Page-1">
    <mxGraphModel dx="819" dy="450" grid="1" gridSize="10" guides="1" tooltips="1" connect="1" arrows="1" fold="1" page="1" pageScale="1" pageWidth="1169" pageHeight="1654" math="0" shadow="0">
      <root>
        <mxCell id="WIyWlLk6GJQsqaUBKTNV-0" />
        <mxCell id="WIyWlLk6GJQsqaUBKTNV-1" parent="WIyWlLk6GJQsqaUBKTNV-0" />
        <mxCell id="_-kEL4ofkOqdXQKnSpcr-0" value="User Wants to create&lt;br&gt;Lightning figure." style="ellipse;whiteSpace=wrap;html=1;fillColor=#d5e8d4;strokeColor=#82b366;" vertex="1" parent="WIyWlLk6GJQsqaUBKTNV-1">
          <mxGeometry x="82.5" y="40" width="160" height="80" as="geometry" />
        </mxCell>
        <mxCell id="_-kEL4ofkOqdXQKnSpcr-2" value="User imports data?" style="rhombus;whiteSpace=wrap;html=1;" vertex="1" parent="WIyWlLk6GJQsqaUBKTNV-1">
          <mxGeometry x="82.5" y="160" width="160" height="80" as="geometry" />
        </mxCell>
        <mxCell id="_-kEL4ofkOqdXQKnSpcr-3" value="User inputs invalid data, we need to prompt to user to input valid data." style="rounded=0;whiteSpace=wrap;html=1;" vertex="1" parent="WIyWlLk6GJQsqaUBKTNV-1">
          <mxGeometry x="291.25" y="170" width="120" height="60" as="geometry" />
        </mxCell>
        <mxCell id="_-kEL4ofkOqdXQKnSpcr-4" value="Is the data valid?" style="rhombus;whiteSpace=wrap;html=1;" vertex="1" parent="WIyWlLk6GJQsqaUBKTNV-1">
          <mxGeometry x="87.5" y="280" width="150" height="80" as="geometry" />
        </mxCell>
        <mxCell id="_-kEL4ofkOqdXQKnSpcr-7" value="Load and process the data.&lt;br style=&quot;border-color: var(--border-color);&quot;&gt;(Via chargepol/lma-tools)." style="shape=process;whiteSpace=wrap;html=1;backgroundOutline=1;" vertex="1" parent="WIyWlLk6GJQsqaUBKTNV-1">
          <mxGeometry x="80" y="400" width="165" height="60" as="geometry" />
        </mxCell>
        <mxCell id="_-kEL4ofkOqdXQKnSpcr-8" value="Statement" style="rounded=0;whiteSpace=wrap;html=1;" vertex="1" parent="WIyWlLk6GJQsqaUBKTNV-1">
          <mxGeometry x="300" y="1580" width="120" height="40" as="geometry" />
        </mxCell>
        <mxCell id="_-kEL4ofkOqdXQKnSpcr-10" value="Stop" style="ellipse;whiteSpace=wrap;html=1;fillColor=#f8cecc;strokeColor=#b85450;" vertex="1" parent="WIyWlLk6GJQsqaUBKTNV-1">
          <mxGeometry x="570" y="1570" width="120" height="60" as="geometry" />
        </mxCell>
        <mxCell id="_-kEL4ofkOqdXQKnSpcr-11" value="Process" style="shape=process;whiteSpace=wrap;html=1;backgroundOutline=1;" vertex="1" parent="WIyWlLk6GJQsqaUBKTNV-1">
          <mxGeometry x="440" y="1580" width="120" height="40" as="geometry" />
        </mxCell>
        <mxCell id="_-kEL4ofkOqdXQKnSpcr-12" value="Decision point" style="rhombus;whiteSpace=wrap;html=1;" vertex="1" parent="WIyWlLk6GJQsqaUBKTNV-1">
          <mxGeometry x="168.75" y="1560" width="120" height="80" as="geometry" />
        </mxCell>
        <mxCell id="_-kEL4ofkOqdXQKnSpcr-13" value="" style="endArrow=classic;html=1;rounded=0;entryX=0.5;entryY=1;entryDx=0;entryDy=0;" edge="1" parent="WIyWlLk6GJQsqaUBKTNV-1">
          <mxGeometry width="50" height="50" relative="1" as="geometry">
            <mxPoint x="238.75" y="320" as="sourcePoint" />
            <mxPoint x="348.75" y="230" as="targetPoint" />
            <Array as="points">
              <mxPoint x="348.75" y="320" />
            </Array>
          </mxGeometry>
        </mxCell>
        <mxCell id="_-kEL4ofkOqdXQKnSpcr-14" value="No" style="text;html=1;strokeColor=none;fillColor=none;align=center;verticalAlign=middle;whiteSpace=wrap;rounded=0;" vertex="1" parent="WIyWlLk6GJQsqaUBKTNV-1">
          <mxGeometry x="228.75" y="300" width="60" height="30" as="geometry" />
        </mxCell>
        <mxCell id="_-kEL4ofkOqdXQKnSpcr-15" value="" style="endArrow=classic;html=1;rounded=0;exitX=0.5;exitY=1;exitDx=0;exitDy=0;entryX=0.5;entryY=0;entryDx=0;entryDy=0;" edge="1" parent="WIyWlLk6GJQsqaUBKTNV-1" source="_-kEL4ofkOqdXQKnSpcr-2" target="_-kEL4ofkOqdXQKnSpcr-4">
          <mxGeometry width="50" height="50" relative="1" as="geometry">
            <mxPoint x="178.75" y="260" as="sourcePoint" />
            <mxPoint x="228.75" y="210" as="targetPoint" />
          </mxGeometry>
        </mxCell>
        <mxCell id="_-kEL4ofkOqdXQKnSpcr-18" value="Yes" style="text;html=1;strokeColor=none;fillColor=none;align=center;verticalAlign=middle;whiteSpace=wrap;rounded=0;" vertex="1" parent="WIyWlLk6GJQsqaUBKTNV-1">
          <mxGeometry x="148.75" y="240" width="60" height="30" as="geometry" />
        </mxCell>
        <mxCell id="_-kEL4ofkOqdXQKnSpcr-19" value="" style="endArrow=classic;html=1;rounded=0;exitX=0.5;exitY=1;exitDx=0;exitDy=0;entryX=0.5;entryY=0;entryDx=0;entryDy=0;" edge="1" parent="WIyWlLk6GJQsqaUBKTNV-1" source="_-kEL4ofkOqdXQKnSpcr-0" target="_-kEL4ofkOqdXQKnSpcr-2">
          <mxGeometry width="50" height="50" relative="1" as="geometry">
            <mxPoint x="168.75" y="160" as="sourcePoint" />
            <mxPoint x="218.75" y="110" as="targetPoint" />
          </mxGeometry>
        </mxCell>
        <mxCell id="_-kEL4ofkOqdXQKnSpcr-20" value="" style="endArrow=classic;html=1;rounded=0;exitX=1;exitY=0.5;exitDx=0;exitDy=0;entryX=0;entryY=0.5;entryDx=0;entryDy=0;" edge="1" parent="WIyWlLk6GJQsqaUBKTNV-1" source="_-kEL4ofkOqdXQKnSpcr-2">
          <mxGeometry width="50" height="50" relative="1" as="geometry">
            <mxPoint x="248.75" y="160" as="sourcePoint" />
            <mxPoint x="288.75" y="200" as="targetPoint" />
          </mxGeometry>
        </mxCell>
        <mxCell id="_-kEL4ofkOqdXQKnSpcr-21" value="No" style="text;html=1;strokeColor=none;fillColor=none;align=center;verticalAlign=middle;whiteSpace=wrap;rounded=0;" vertex="1" parent="WIyWlLk6GJQsqaUBKTNV-1">
          <mxGeometry x="228.75" y="180" width="60" height="30" as="geometry" />
        </mxCell>
        <mxCell id="_-kEL4ofkOqdXQKnSpcr-22" value="" style="endArrow=classic;html=1;rounded=0;exitX=0.5;exitY=0;exitDx=0;exitDy=0;" edge="1" parent="WIyWlLk6GJQsqaUBKTNV-1">
          <mxGeometry width="50" height="50" relative="1" as="geometry">
            <mxPoint x="348.75" y="170" as="sourcePoint" />
            <mxPoint x="168.75" y="140" as="targetPoint" />
            <Array as="points">
              <mxPoint x="348.75" y="140" />
            </Array>
          </mxGeometry>
        </mxCell>
        <mxCell id="_-kEL4ofkOqdXQKnSpcr-23" value="" style="endArrow=classic;html=1;rounded=0;exitX=0.5;exitY=1;exitDx=0;exitDy=0;entryX=0.5;entryY=0;entryDx=0;entryDy=0;" edge="1" parent="WIyWlLk6GJQsqaUBKTNV-1" source="_-kEL4ofkOqdXQKnSpcr-4" target="_-kEL4ofkOqdXQKnSpcr-7">
          <mxGeometry width="50" height="50" relative="1" as="geometry">
            <mxPoint x="188.75" y="380" as="sourcePoint" />
            <mxPoint x="238.75" y="330" as="targetPoint" />
          </mxGeometry>
        </mxCell>
        <mxCell id="_-kEL4ofkOqdXQKnSpcr-24" value="Yes" style="text;html=1;strokeColor=none;fillColor=none;align=center;verticalAlign=middle;whiteSpace=wrap;rounded=0;" vertex="1" parent="WIyWlLk6GJQsqaUBKTNV-1">
          <mxGeometry x="148.75" y="360" width="60" height="30" as="geometry" />
        </mxCell>
        <mxCell id="_-kEL4ofkOqdXQKnSpcr-25" value="" style="endArrow=classic;html=1;rounded=0;exitX=0.5;exitY=1;exitDx=0;exitDy=0;entryX=0.5;entryY=0;entryDx=0;entryDy=0;" edge="1" parent="WIyWlLk6GJQsqaUBKTNV-1" source="_-kEL4ofkOqdXQKnSpcr-7" target="_-kEL4ofkOqdXQKnSpcr-26">
          <mxGeometry width="50" height="50" relative="1" as="geometry">
            <mxPoint x="188.75" y="540" as="sourcePoint" />
            <mxPoint x="163.75" y="520" as="targetPoint" />
          </mxGeometry>
        </mxCell>
        <mxCell id="_-kEL4ofkOqdXQKnSpcr-26" value="Generate template figures and display on the pre-created section. (2)" style="shape=process;whiteSpace=wrap;html=1;backgroundOutline=1;" vertex="1" parent="WIyWlLk6GJQsqaUBKTNV-1">
          <mxGeometry x="81.25" y="510" width="162.5" height="60" as="geometry" />
        </mxCell>
        <mxCell id="_-kEL4ofkOqdXQKnSpcr-27" value="User selects one &lt;br&gt;of the templates." style="rhombus;whiteSpace=wrap;html=1;" vertex="1" parent="WIyWlLk6GJQsqaUBKTNV-1">
          <mxGeometry x="82.5" y="600" width="160" height="80" as="geometry" />
        </mxCell>
        <mxCell id="_-kEL4ofkOqdXQKnSpcr-28" value="" style="endArrow=classic;html=1;rounded=0;exitX=0.5;exitY=1;exitDx=0;exitDy=0;entryX=0.5;entryY=0;entryDx=0;entryDy=0;" edge="1" parent="WIyWlLk6GJQsqaUBKTNV-1" source="_-kEL4ofkOqdXQKnSpcr-26" target="_-kEL4ofkOqdXQKnSpcr-27">
          <mxGeometry width="50" height="50" relative="1" as="geometry">
            <mxPoint x="200" y="610" as="sourcePoint" />
            <mxPoint x="250" y="560" as="targetPoint" />
          </mxGeometry>
        </mxCell>
        <mxCell id="_-kEL4ofkOqdXQKnSpcr-29" value="" style="endArrow=classic;html=1;rounded=0;" edge="1" parent="WIyWlLk6GJQsqaUBKTNV-1">
          <mxGeometry width="50" height="50" relative="1" as="geometry">
            <mxPoint x="240" y="640" as="sourcePoint" />
            <mxPoint x="320" y="640" as="targetPoint" />
          </mxGeometry>
        </mxCell>
        <mxCell id="_-kEL4ofkOqdXQKnSpcr-31" value="Start" style="ellipse;whiteSpace=wrap;html=1;fillColor=#d5e8d4;strokeColor=#82b366;" vertex="1" parent="WIyWlLk6GJQsqaUBKTNV-1">
          <mxGeometry x="40" y="1570" width="120" height="60" as="geometry" />
        </mxCell>
        <mxCell id="_-kEL4ofkOqdXQKnSpcr-36" value="Selected template should be now displayed in main line (3)" style="shape=process;whiteSpace=wrap;html=1;backgroundOutline=1;" vertex="1" parent="WIyWlLk6GJQsqaUBKTNV-1">
          <mxGeometry x="560" y="510" width="162.5" height="60" as="geometry" />
        </mxCell>
        <mxCell id="_-kEL4ofkOqdXQKnSpcr-38" value="Does the user wish to&lt;br&gt;select a specified&lt;br&gt;time?" style="rhombus;whiteSpace=wrap;html=1;" vertex="1" parent="WIyWlLk6GJQsqaUBKTNV-1">
          <mxGeometry x="320" y="600" width="160" height="80" as="geometry" />
        </mxCell>
        <mxCell id="_-kEL4ofkOqdXQKnSpcr-40" value="" style="endArrow=classic;html=1;rounded=0;exitX=0.5;exitY=0;exitDx=0;exitDy=0;" edge="1" parent="WIyWlLk6GJQsqaUBKTNV-1" source="_-kEL4ofkOqdXQKnSpcr-38">
          <mxGeometry width="50" height="50" relative="1" as="geometry">
            <mxPoint x="410" y="590" as="sourcePoint" />
            <mxPoint x="400" y="520" as="targetPoint" />
          </mxGeometry>
        </mxCell>
        <mxCell id="_-kEL4ofkOqdXQKnSpcr-41" value="We should have a &#39;default&#39; time stamp for a single day and multiple days." style="rounded=0;whiteSpace=wrap;html=1;" vertex="1" parent="WIyWlLk6GJQsqaUBKTNV-1">
          <mxGeometry x="340" y="510" width="120" height="60" as="geometry" />
        </mxCell>
        <mxCell id="_-kEL4ofkOqdXQKnSpcr-42" value="No" style="text;html=1;strokeColor=none;fillColor=none;align=center;verticalAlign=middle;whiteSpace=wrap;rounded=0;" vertex="1" parent="WIyWlLk6GJQsqaUBKTNV-1">
          <mxGeometry x="380" y="570" width="60" height="30" as="geometry" />
        </mxCell>
        <mxCell id="_-kEL4ofkOqdXQKnSpcr-43" value="Yes" style="text;html=1;strokeColor=none;fillColor=none;align=center;verticalAlign=middle;whiteSpace=wrap;rounded=0;" vertex="1" parent="WIyWlLk6GJQsqaUBKTNV-1">
          <mxGeometry x="470" y="620" width="60" height="30" as="geometry" />
        </mxCell>
        <mxCell id="_-kEL4ofkOqdXQKnSpcr-44" value="Prompt the user for its specifications (and other options?) and generate figure." style="shape=process;whiteSpace=wrap;html=1;backgroundOutline=1;" vertex="1" parent="WIyWlLk6GJQsqaUBKTNV-1">
          <mxGeometry x="560" y="610" width="162.5" height="60" as="geometry" />
        </mxCell>
        <mxCell id="_-kEL4ofkOqdXQKnSpcr-45" value="" style="endArrow=classic;html=1;rounded=0;" edge="1" parent="WIyWlLk6GJQsqaUBKTNV-1">
          <mxGeometry width="50" height="50" relative="1" as="geometry">
            <mxPoint x="480" y="639.76" as="sourcePoint" />
            <mxPoint x="560" y="639.76" as="targetPoint" />
          </mxGeometry>
        </mxCell>
        <mxCell id="_-kEL4ofkOqdXQKnSpcr-46" value="" style="endArrow=classic;html=1;rounded=0;exitX=1;exitY=0.5;exitDx=0;exitDy=0;entryX=0;entryY=0.5;entryDx=0;entryDy=0;" edge="1" parent="WIyWlLk6GJQsqaUBKTNV-1" source="_-kEL4ofkOqdXQKnSpcr-41" target="_-kEL4ofkOqdXQKnSpcr-36">
          <mxGeometry width="50" height="50" relative="1" as="geometry">
            <mxPoint x="470" y="550" as="sourcePoint" />
            <mxPoint x="520" y="500" as="targetPoint" />
          </mxGeometry>
        </mxCell>
        <mxCell id="_-kEL4ofkOqdXQKnSpcr-47" value="" style="endArrow=classic;html=1;rounded=0;exitX=0.5;exitY=0;exitDx=0;exitDy=0;entryX=0.5;entryY=1;entryDx=0;entryDy=0;" edge="1" parent="WIyWlLk6GJQsqaUBKTNV-1" source="_-kEL4ofkOqdXQKnSpcr-44" target="_-kEL4ofkOqdXQKnSpcr-36">
          <mxGeometry width="50" height="50" relative="1" as="geometry">
            <mxPoint x="650" y="600" as="sourcePoint" />
            <mxPoint x="700" y="550" as="targetPoint" />
          </mxGeometry>
        </mxCell>
        <mxCell id="_-kEL4ofkOqdXQKnSpcr-50" value="Does the user wants &lt;br&gt;to save this figure?" style="rhombus;whiteSpace=wrap;html=1;" vertex="1" parent="WIyWlLk6GJQsqaUBKTNV-1">
          <mxGeometry x="561.25" y="400" width="160" height="80" as="geometry" />
        </mxCell>
        <mxCell id="_-kEL4ofkOqdXQKnSpcr-51" value="Does the user wants &lt;br&gt;to generate another &lt;br&gt;figure." style="rhombus;whiteSpace=wrap;html=1;" vertex="1" parent="WIyWlLk6GJQsqaUBKTNV-1">
          <mxGeometry x="561.25" y="280" width="160" height="80" as="geometry" />
        </mxCell>
        <mxCell id="_-kEL4ofkOqdXQKnSpcr-52" value="Yes" style="text;html=1;strokeColor=none;fillColor=none;align=center;verticalAlign=middle;whiteSpace=wrap;rounded=0;" vertex="1" parent="WIyWlLk6GJQsqaUBKTNV-1">
          <mxGeometry x="231" y="620" width="60" height="30" as="geometry" />
        </mxCell>
        <mxCell id="_-kEL4ofkOqdXQKnSpcr-56" value="Does the user wants to&lt;br&gt;reuse the already imported data." style="rhombus;whiteSpace=wrap;html=1;" vertex="1" parent="WIyWlLk6GJQsqaUBKTNV-1">
          <mxGeometry x="330" y="360" width="160" height="80" as="geometry" />
        </mxCell>
        <mxCell id="_-kEL4ofkOqdXQKnSpcr-57" value="" style="endArrow=classic;html=1;rounded=0;exitX=0;exitY=0.5;exitDx=0;exitDy=0;entryX=0.5;entryY=0;entryDx=0;entryDy=0;" edge="1" parent="WIyWlLk6GJQsqaUBKTNV-1" source="_-kEL4ofkOqdXQKnSpcr-51" target="_-kEL4ofkOqdXQKnSpcr-56">
          <mxGeometry width="50" height="50" relative="1" as="geometry">
            <mxPoint x="770" y="470" as="sourcePoint" />
            <mxPoint x="400" y="320" as="targetPoint" />
            <Array as="points">
              <mxPoint x="410" y="320" />
            </Array>
          </mxGeometry>
        </mxCell>
        <mxCell id="_-kEL4ofkOqdXQKnSpcr-58" value="" style="endArrow=classic;html=1;rounded=0;exitX=0.5;exitY=1;exitDx=0;exitDy=0;" edge="1" parent="WIyWlLk6GJQsqaUBKTNV-1" source="_-kEL4ofkOqdXQKnSpcr-56">
          <mxGeometry width="50" height="50" relative="1" as="geometry">
            <mxPoint x="440" y="480" as="sourcePoint" />
            <mxPoint x="160" y="580" as="targetPoint" />
            <Array as="points">
              <mxPoint x="300" y="440" />
              <mxPoint x="300" y="580" />
            </Array>
          </mxGeometry>
        </mxCell>
        <mxCell id="_-kEL4ofkOqdXQKnSpcr-60" value="" style="endArrow=none;dashed=1;html=1;dashPattern=1 3;strokeWidth=2;rounded=0;entryX=0;entryY=0.5;entryDx=0;entryDy=0;" edge="1" parent="WIyWlLk6GJQsqaUBKTNV-1" target="_-kEL4ofkOqdXQKnSpcr-56">
          <mxGeometry width="50" height="50" relative="1" as="geometry">
            <mxPoint x="300" y="400" as="sourcePoint" />
            <mxPoint x="340" y="390" as="targetPoint" />
          </mxGeometry>
        </mxCell>
        <mxCell id="_-kEL4ofkOqdXQKnSpcr-61" value="(1)" style="text;html=1;strokeColor=none;fillColor=none;align=center;verticalAlign=middle;whiteSpace=wrap;rounded=0;" vertex="1" parent="WIyWlLk6GJQsqaUBKTNV-1">
          <mxGeometry x="280" y="400" width="60" height="30" as="geometry" />
        </mxCell>
        <mxCell id="_-kEL4ofkOqdXQKnSpcr-64" value="" style="endArrow=none;dashed=1;html=1;dashPattern=1 3;strokeWidth=2;rounded=0;entryX=0;entryY=0.5;entryDx=0;entryDy=0;" edge="1" parent="WIyWlLk6GJQsqaUBKTNV-1">
          <mxGeometry width="50" height="50" relative="1" as="geometry">
            <mxPoint x="52.5" y="140" as="sourcePoint" />
            <mxPoint x="82.5" y="140" as="targetPoint" />
          </mxGeometry>
        </mxCell>
        <mxCell id="_-kEL4ofkOqdXQKnSpcr-65" value="" style="endArrow=classic;html=1;rounded=0;" edge="1" parent="WIyWlLk6GJQsqaUBKTNV-1">
          <mxGeometry width="50" height="50" relative="1" as="geometry">
            <mxPoint x="80" y="140" as="sourcePoint" />
            <mxPoint x="160" y="140" as="targetPoint" />
          </mxGeometry>
        </mxCell>
        <mxCell id="_-kEL4ofkOqdXQKnSpcr-66" value="(1)" style="text;html=1;strokeColor=none;fillColor=none;align=center;verticalAlign=middle;whiteSpace=wrap;rounded=0;" vertex="1" parent="WIyWlLk6GJQsqaUBKTNV-1">
          <mxGeometry x="30" y="110" width="60" height="30" as="geometry" />
        </mxCell>
        <mxCell id="_-kEL4ofkOqdXQKnSpcr-68" value="No" style="text;html=1;strokeColor=none;fillColor=none;align=center;verticalAlign=middle;whiteSpace=wrap;rounded=0;" vertex="1" parent="WIyWlLk6GJQsqaUBKTNV-1">
          <mxGeometry x="150" y="680" width="60" height="30" as="geometry" />
        </mxCell>
        <mxCell id="_-kEL4ofkOqdXQKnSpcr-69" value="" style="endArrow=classic;html=1;rounded=0;exitX=0.5;exitY=0;exitDx=0;exitDy=0;entryX=0.5;entryY=1;entryDx=0;entryDy=0;" edge="1" parent="WIyWlLk6GJQsqaUBKTNV-1" source="_-kEL4ofkOqdXQKnSpcr-36" target="_-kEL4ofkOqdXQKnSpcr-50">
          <mxGeometry width="50" height="50" relative="1" as="geometry">
            <mxPoint x="490" y="510" as="sourcePoint" />
            <mxPoint x="540" y="460" as="targetPoint" />
          </mxGeometry>
        </mxCell>
        <mxCell id="_-kEL4ofkOqdXQKnSpcr-70" value="" style="endArrow=classic;html=1;rounded=0;exitX=0.5;exitY=0;exitDx=0;exitDy=0;entryX=0.5;entryY=1;entryDx=0;entryDy=0;" edge="1" parent="WIyWlLk6GJQsqaUBKTNV-1" source="_-kEL4ofkOqdXQKnSpcr-50" target="_-kEL4ofkOqdXQKnSpcr-51">
          <mxGeometry width="50" height="50" relative="1" as="geometry">
            <mxPoint x="530" y="410" as="sourcePoint" />
            <mxPoint x="580" y="360" as="targetPoint" />
          </mxGeometry>
        </mxCell>
        <mxCell id="_-kEL4ofkOqdXQKnSpcr-71" value="No" style="text;html=1;strokeColor=none;fillColor=none;align=center;verticalAlign=middle;whiteSpace=wrap;rounded=0;" vertex="1" parent="WIyWlLk6GJQsqaUBKTNV-1">
          <mxGeometry x="620" y="370" width="60" height="30" as="geometry" />
        </mxCell>
        <mxCell id="_-kEL4ofkOqdXQKnSpcr-72" value="" style="endArrow=classic;html=1;rounded=0;exitX=1;exitY=0.5;exitDx=0;exitDy=0;" edge="1" parent="WIyWlLk6GJQsqaUBKTNV-1" source="_-kEL4ofkOqdXQKnSpcr-50">
          <mxGeometry width="50" height="50" relative="1" as="geometry">
            <mxPoint x="750" y="460" as="sourcePoint" />
            <mxPoint x="760" y="440" as="targetPoint" />
          </mxGeometry>
        </mxCell>
        <mxCell id="_-kEL4ofkOqdXQKnSpcr-73" value="Should we create a &#39;project&#39; folder where all files are stored (PyCharm)?" style="rounded=0;whiteSpace=wrap;html=1;" vertex="1" parent="WIyWlLk6GJQsqaUBKTNV-1">
          <mxGeometry x="760" y="410" width="120" height="60" as="geometry" />
        </mxCell>
        <mxCell id="_-kEL4ofkOqdXQKnSpcr-74" value="" style="endArrow=classic;html=1;rounded=0;exitX=0.5;exitY=1;exitDx=0;exitDy=0;entryX=0.5;entryY=0;entryDx=0;entryDy=0;" edge="1" parent="WIyWlLk6GJQsqaUBKTNV-1" source="_-kEL4ofkOqdXQKnSpcr-73" target="_-kEL4ofkOqdXQKnSpcr-77">
          <mxGeometry width="50" height="50" relative="1" as="geometry">
            <mxPoint x="860" y="530" as="sourcePoint" />
            <mxPoint x="820" y="520" as="targetPoint" />
          </mxGeometry>
        </mxCell>
        <mxCell id="_-kEL4ofkOqdXQKnSpcr-77" value="User inputs valid file path." style="rhombus;whiteSpace=wrap;html=1;" vertex="1" parent="WIyWlLk6GJQsqaUBKTNV-1">
          <mxGeometry x="740" y="500" width="160" height="80" as="geometry" />
        </mxCell>
        <mxCell id="_-kEL4ofkOqdXQKnSpcr-80" value="" style="endArrow=classic;html=1;rounded=0;exitX=0.5;exitY=1;exitDx=0;exitDy=0;entryX=0.5;entryY=0;entryDx=0;entryDy=0;" edge="1" parent="WIyWlLk6GJQsqaUBKTNV-1" source="_-kEL4ofkOqdXQKnSpcr-77" target="_-kEL4ofkOqdXQKnSpcr-81">
          <mxGeometry width="50" height="50" relative="1" as="geometry">
            <mxPoint x="850" y="640" as="sourcePoint" />
            <mxPoint x="820" y="640" as="targetPoint" />
          </mxGeometry>
        </mxCell>
        <mxCell id="_-kEL4ofkOqdXQKnSpcr-81" value="Stop&lt;br&gt;(Figure was saved)" style="ellipse;whiteSpace=wrap;html=1;fillColor=#f8cecc;strokeColor=#b85450;" vertex="1" parent="WIyWlLk6GJQsqaUBKTNV-1">
          <mxGeometry x="760" y="640" width="120" height="60" as="geometry" />
        </mxCell>
        <mxCell id="_-kEL4ofkOqdXQKnSpcr-82" value="No" style="text;html=1;strokeColor=none;fillColor=none;align=center;verticalAlign=middle;whiteSpace=wrap;rounded=0;" vertex="1" parent="WIyWlLk6GJQsqaUBKTNV-1">
          <mxGeometry x="890" y="510" width="60" height="30" as="geometry" />
        </mxCell>
        <mxCell id="_-kEL4ofkOqdXQKnSpcr-84" value="Yes" style="text;html=1;strokeColor=none;fillColor=none;align=center;verticalAlign=middle;whiteSpace=wrap;rounded=0;" vertex="1" parent="WIyWlLk6GJQsqaUBKTNV-1">
          <mxGeometry x="510" y="300" width="60" height="30" as="geometry" />
        </mxCell>
        <mxCell id="_-kEL4ofkOqdXQKnSpcr-85" value="Yes" style="text;html=1;strokeColor=none;fillColor=none;align=center;verticalAlign=middle;whiteSpace=wrap;rounded=0;" vertex="1" parent="WIyWlLk6GJQsqaUBKTNV-1">
          <mxGeometry x="340" y="440" width="60" height="30" as="geometry" />
        </mxCell>
        <mxCell id="_-kEL4ofkOqdXQKnSpcr-86" value="No" style="text;html=1;strokeColor=none;fillColor=none;align=center;verticalAlign=middle;whiteSpace=wrap;rounded=0;" vertex="1" parent="WIyWlLk6GJQsqaUBKTNV-1">
          <mxGeometry x="280" y="370" width="60" height="30" as="geometry" />
        </mxCell>
        <mxCell id="_-kEL4ofkOqdXQKnSpcr-87" value="Yes" style="text;html=1;strokeColor=none;fillColor=none;align=center;verticalAlign=middle;whiteSpace=wrap;rounded=0;" vertex="1" parent="WIyWlLk6GJQsqaUBKTNV-1">
          <mxGeometry x="710" y="415" width="60" height="30" as="geometry" />
        </mxCell>
        <mxCell id="_-kEL4ofkOqdXQKnSpcr-88" value="Yes" style="text;html=1;strokeColor=none;fillColor=none;align=center;verticalAlign=middle;whiteSpace=wrap;rounded=0;" vertex="1" parent="WIyWlLk6GJQsqaUBKTNV-1">
          <mxGeometry x="810" y="590" width="60" height="30" as="geometry" />
        </mxCell>
        <mxCell id="_-kEL4ofkOqdXQKnSpcr-89" value="" style="endArrow=classic;html=1;rounded=0;exitX=1;exitY=0.5;exitDx=0;exitDy=0;" edge="1" parent="WIyWlLk6GJQsqaUBKTNV-1" source="_-kEL4ofkOqdXQKnSpcr-77">
          <mxGeometry width="50" height="50" relative="1" as="geometry">
            <mxPoint x="950" y="590" as="sourcePoint" />
            <mxPoint x="960" y="540" as="targetPoint" />
          </mxGeometry>
        </mxCell>
        <mxCell id="_-kEL4ofkOqdXQKnSpcr-92" value="Prompt the user to input a valid file." style="shape=process;whiteSpace=wrap;html=1;backgroundOutline=1;" vertex="1" parent="WIyWlLk6GJQsqaUBKTNV-1">
          <mxGeometry x="960" y="510" width="162.5" height="60" as="geometry" />
        </mxCell>
        <mxCell id="_-kEL4ofkOqdXQKnSpcr-93" value="" style="endArrow=classic;html=1;rounded=0;exitX=0.5;exitY=0;exitDx=0;exitDy=0;" edge="1" parent="WIyWlLk6GJQsqaUBKTNV-1" source="_-kEL4ofkOqdXQKnSpcr-92">
          <mxGeometry width="50" height="50" relative="1" as="geometry">
            <mxPoint x="1040" y="450" as="sourcePoint" />
            <mxPoint x="820" y="480" as="targetPoint" />
            <Array as="points">
              <mxPoint x="1041" y="480" />
            </Array>
          </mxGeometry>
        </mxCell>
        <mxCell id="_-kEL4ofkOqdXQKnSpcr-94" value="" style="endArrow=classic;html=1;rounded=0;exitX=0.5;exitY=0;exitDx=0;exitDy=0;entryX=0.5;entryY=1;entryDx=0;entryDy=0;" edge="1" parent="WIyWlLk6GJQsqaUBKTNV-1" source="_-kEL4ofkOqdXQKnSpcr-51" target="_-kEL4ofkOqdXQKnSpcr-95">
          <mxGeometry width="50" height="50" relative="1" as="geometry">
            <mxPoint x="650" y="260" as="sourcePoint" />
            <mxPoint x="670" y="250" as="targetPoint" />
          </mxGeometry>
        </mxCell>
        <mxCell id="_-kEL4ofkOqdXQKnSpcr-95" value="Does the user wants to&lt;br&gt;modify a cur. figure?" style="rhombus;whiteSpace=wrap;html=1;" vertex="1" parent="WIyWlLk6GJQsqaUBKTNV-1">
          <mxGeometry x="561.25" y="160" width="160" height="80" as="geometry" />
        </mxCell>
        <mxCell id="_-kEL4ofkOqdXQKnSpcr-97" value="Stop&lt;br&gt;(Due to inactivity)" style="ellipse;whiteSpace=wrap;html=1;fillColor=#f8cecc;strokeColor=#b85450;" vertex="1" parent="WIyWlLk6GJQsqaUBKTNV-1">
          <mxGeometry x="760" y="170" width="120" height="60" as="geometry" />
        </mxCell>
        <mxCell id="_-kEL4ofkOqdXQKnSpcr-98" value="" style="endArrow=classic;html=1;rounded=0;exitX=1;exitY=0.5;exitDx=0;exitDy=0;entryX=0;entryY=0.5;entryDx=0;entryDy=0;" edge="1" parent="WIyWlLk6GJQsqaUBKTNV-1" source="_-kEL4ofkOqdXQKnSpcr-95" target="_-kEL4ofkOqdXQKnSpcr-97">
          <mxGeometry width="50" height="50" relative="1" as="geometry">
            <mxPoint x="710" y="190" as="sourcePoint" />
            <mxPoint x="760" y="140" as="targetPoint" />
          </mxGeometry>
        </mxCell>
        <mxCell id="_-kEL4ofkOqdXQKnSpcr-100" value="" style="endArrow=classic;html=1;rounded=0;exitX=0.5;exitY=0;exitDx=0;exitDy=0;entryX=0.5;entryY=1;entryDx=0;entryDy=0;" edge="1" parent="WIyWlLk6GJQsqaUBKTNV-1" source="_-kEL4ofkOqdXQKnSpcr-95">
          <mxGeometry width="50" height="50" relative="1" as="geometry">
            <mxPoint x="720" y="140" as="sourcePoint" />
            <mxPoint x="641.25" y="120" as="targetPoint" />
          </mxGeometry>
        </mxCell>
        <mxCell id="_-kEL4ofkOqdXQKnSpcr-102" value="&lt;font style=&quot;font-size: 11px;&quot;&gt;There should be a tab or option that allows to modify the &#39;properties&#39; of a figure.&lt;/font&gt;" style="rounded=0;whiteSpace=wrap;html=1;" vertex="1" parent="WIyWlLk6GJQsqaUBKTNV-1">
          <mxGeometry x="581.25" y="60" width="120" height="60" as="geometry" />
        </mxCell>
        <mxCell id="_-kEL4ofkOqdXQKnSpcr-104" value="" style="endArrow=classic;html=1;rounded=0;exitX=1;exitY=0.5;exitDx=0;exitDy=0;entryX=0;entryY=0.5;entryDx=0;entryDy=0;" edge="1" parent="WIyWlLk6GJQsqaUBKTNV-1" source="_-kEL4ofkOqdXQKnSpcr-102" target="_-kEL4ofkOqdXQKnSpcr-105">
          <mxGeometry width="50" height="50" relative="1" as="geometry">
            <mxPoint x="700" y="170" as="sourcePoint" />
            <mxPoint x="760" y="90" as="targetPoint" />
          </mxGeometry>
        </mxCell>
        <mxCell id="_-kEL4ofkOqdXQKnSpcr-105" value="Regenerate current figure with modified values." style="shape=process;whiteSpace=wrap;html=1;backgroundOutline=1;" vertex="1" parent="WIyWlLk6GJQsqaUBKTNV-1">
          <mxGeometry x="758.75" y="60" width="162.5" height="60" as="geometry" />
        </mxCell>
        <mxCell id="_-kEL4ofkOqdXQKnSpcr-107" value="" style="endArrow=none;dashed=1;html=1;dashPattern=1 3;strokeWidth=2;rounded=0;exitX=1;exitY=0.5;exitDx=0;exitDy=0;" edge="1" parent="WIyWlLk6GJQsqaUBKTNV-1" source="_-kEL4ofkOqdXQKnSpcr-105">
          <mxGeometry width="50" height="50" relative="1" as="geometry">
            <mxPoint x="970" y="140" as="sourcePoint" />
            <mxPoint x="960" y="90" as="targetPoint" />
          </mxGeometry>
        </mxCell>
        <mxCell id="_-kEL4ofkOqdXQKnSpcr-108" value="" style="endArrow=none;dashed=1;html=1;dashPattern=1 3;strokeWidth=2;rounded=0;entryX=0;entryY=0.5;entryDx=0;entryDy=0;" edge="1" parent="WIyWlLk6GJQsqaUBKTNV-1" target="_-kEL4ofkOqdXQKnSpcr-50">
          <mxGeometry width="50" height="50" relative="1" as="geometry">
            <mxPoint x="520" y="440" as="sourcePoint" />
            <mxPoint x="540" y="440" as="targetPoint" />
          </mxGeometry>
        </mxCell>
        <mxCell id="_-kEL4ofkOqdXQKnSpcr-109" value="(2)" style="text;html=1;strokeColor=none;fillColor=none;align=center;verticalAlign=middle;whiteSpace=wrap;rounded=0;" vertex="1" parent="WIyWlLk6GJQsqaUBKTNV-1">
          <mxGeometry x="510" y="410" width="60" height="30" as="geometry" />
        </mxCell>
        <mxCell id="_-kEL4ofkOqdXQKnSpcr-110" value="(2)" style="text;html=1;strokeColor=none;fillColor=none;align=center;verticalAlign=middle;whiteSpace=wrap;rounded=0;" vertex="1" parent="WIyWlLk6GJQsqaUBKTNV-1">
          <mxGeometry x="910" y="65" width="60" height="30" as="geometry" />
        </mxCell>
        <mxCell id="_-kEL4ofkOqdXQKnSpcr-111" value="&lt;h1&gt;Chargepol Application&lt;/h1&gt;&lt;p&gt;General decision making and control/logic flow of the application. The user should input either raw data (&#39;LYLOUT*.dat&#39; files) or refined data (&#39;chargepol.csv&#39; files) apart from that, the user should be able to create its own templates or choose from the precreated templates.&lt;/p&gt;" style="text;html=1;strokeColor=none;fillColor=none;spacing=5;spacingTop=-20;whiteSpace=wrap;overflow=hidden;rounded=0;" vertex="1" parent="WIyWlLk6GJQsqaUBKTNV-1">
          <mxGeometry x="40" y="800" width="400" height="120" as="geometry" />
        </mxCell>
        <mxCell id="_-kEL4ofkOqdXQKnSpcr-113" value="" style="endArrow=none;dashed=1;html=1;dashPattern=1 3;strokeWidth=2;rounded=0;entryX=0.5;entryY=1;entryDx=0;entryDy=0;" edge="1" parent="WIyWlLk6GJQsqaUBKTNV-1" target="_-kEL4ofkOqdXQKnSpcr-27">
          <mxGeometry width="50" height="50" relative="1" as="geometry">
            <mxPoint x="163" y="720" as="sourcePoint" />
            <mxPoint x="90" y="720" as="targetPoint" />
          </mxGeometry>
        </mxCell>
        <mxCell id="_-kEL4ofkOqdXQKnSpcr-114" value="(3)" style="text;html=1;strokeColor=none;fillColor=none;align=center;verticalAlign=middle;whiteSpace=wrap;rounded=0;" vertex="1" parent="WIyWlLk6GJQsqaUBKTNV-1">
          <mxGeometry x="150" y="700" width="60" height="30" as="geometry" />
        </mxCell>
        <mxCell id="_-kEL4ofkOqdXQKnSpcr-115" value="See:&lt;br&gt;https://matplotlib.org/stable/users/explain/interactive.html&lt;br&gt;" style="rounded=0;whiteSpace=wrap;html=1;" vertex="1" parent="WIyWlLk6GJQsqaUBKTNV-1">
          <mxGeometry x="120" y="950" width="320" height="60" as="geometry" />
        </mxCell>
        <mxCell id="_-kEL4ofkOqdXQKnSpcr-116" value="" style="endArrow=none;dashed=1;html=1;dashPattern=1 3;strokeWidth=2;rounded=0;entryX=0;entryY=0.5;entryDx=0;entryDy=0;" edge="1" parent="WIyWlLk6GJQsqaUBKTNV-1" target="_-kEL4ofkOqdXQKnSpcr-115">
          <mxGeometry width="50" height="50" relative="1" as="geometry">
            <mxPoint x="80" y="980" as="sourcePoint" />
            <mxPoint x="100" y="980" as="targetPoint" />
          </mxGeometry>
        </mxCell>
        <mxCell id="_-kEL4ofkOqdXQKnSpcr-117" value="(3)" style="text;html=1;strokeColor=none;fillColor=none;align=center;verticalAlign=middle;whiteSpace=wrap;rounded=0;" vertex="1" parent="WIyWlLk6GJQsqaUBKTNV-1">
          <mxGeometry x="70" y="950" width="60" height="30" as="geometry" />
        </mxCell>
      </root>
    </mxGraphModel>
  </diagram>
</mxfile>
